<?xml version="1.0" encoding="UTF-8"?>
<svg version="1.1" xmlns="http://www.w3.org/2000/svg" width="200" height="200">
<path d="M0 0 C33 0 66 0 100 0 C100 1.65 100 3.3 100 5 C102.64 5 105.28 5 108 5 C108 6.32 108 7.64 108 9 C109.65 9 111.3 9 113 9 C113 10.65 113 12.3 113 14 C114.32 14 115.64 14 117 14 C117 16.97 117 19.94 117 23 C118.65 23 120.3 23 122 23 C124.3868277 27.69169914 124.30633807 32.00219789 124.30078125 37.140625 C124.30506638 38.02224304 124.3093515 38.90386108 124.31376648 39.81219482 C124.31949785 41.67475529 124.32001885 43.53733813 124.31567383 45.39990234 C124.31252602 48.22663362 124.33594539 51.05230513 124.36132812 53.87890625 C124.36360269 55.69531119 124.36430388 57.51171892 124.36328125 59.328125 C124.372491 60.16281311 124.38170074 60.99750122 124.39118958 61.85748291 C124.34580921 67.71532873 123.14962442 72.55903558 121 78 C120.01 78 119.02 78 118 78 C117.67 79.32 117.34 80.64 117 82 C115.68 82 114.36 82 113 82 C113 83.32 113 84.64 113 86 C111.35 86 109.7 86 108 86 C108 86.99 108 87.98 108 89 C115.26 89 122.52 89 130 89 C130.95366977 104.02029886 131.11452078 118.95197008 131 134 C129.35 134.33 127.7 134.66 126 135 C126.33 136.98 126.66 138.96 127 141 C126.360625 141.12375 125.72125 141.2475 125.0625 141.375 C124.381875 141.58125 123.70125 141.7875 123 142 C122.67 142.66 122.34 143.32 122 144 C120.35 144 118.7 144 117 144 C117 145.32 117 146.64 117 148 C114.03 148 111.06 148 108 148 C108 149.65 108 151.3 108 153 C106.68 153 105.36 153 104 153 C104 154.32 104 155.64 104 157 C102.68 157 101.36 157 100 157 C100 158.65 100 160.3 100 162 C99.01 162 98.02 162 97 162 C96.67 162.99 96.34 163.98 96 165 C94.68 164.67 93.36 164.34 92 164 C91.67 164.66 91.34 165.32 91 166 C49.42 166 7.84 166 -35 166 C-35 164.68 -35 163.36 -35 162 C-36.65 162 -38.3 162 -40 162 C-40 156.72 -40 151.44 -40 146 C-38.35 146 -36.7 146 -35 146 C-35 144.68 -35 143.36 -35 142 C-33.68 142 -32.36 142 -31 142 C-31 140.35 -31 138.7 -31 137 C-29.68 137 -28.36 137 -27 137 C-26.505 135.02 -26.505 135.02 -26 133 C-24.68 133 -23.36 133 -22 133 C-22 122.77 -22 112.54 -22 102 C-20.68 102 -19.36 102 -18 102 C-18 100.68 -18 99.36 -18 98 C-15.03 98 -12.06 98 -9 98 C-9 96.35 -9 94.7 -9 93 C-6.03 93 -3.06 93 0 93 C0 92.34 0 91.68 0 91 C-1.65 91 -3.3 91 -5 91 C-5 89.35 -5 87.7 -5 86 C-6.32 86 -7.64 86 -9 86 C-9 60.59 -9 35.18 -9 9 C-7.68 9 -6.36 9 -5 9 C-5 7.68 -5 6.36 -5 5 C-3.35 5 -1.7 5 0 5 C0 3.35 0 1.7 0 0 Z " fill="#3F342C" transform="translate(49,18)"/>
<path d="M0 0 C26.73 0 53.46 0 81 0 C81 1.65 81 3.3 81 5 C82.32 5 83.64 5 85 5 C85 24.14 85 43.28 85 63 C83.35 63 81.7 63 80 63 C80 64.32 80 65.64 80 67 C53.6 67 27.2 67 0 67 C0 65.68 0 64.36 0 63 C-1.32 63 -2.64 63 -4 63 C-4 43.86 -4 24.72 -4 5 C-2.68 5 -1.36 5 0 5 C0 3.35 0 1.7 0 0 Z " fill="#316E87" transform="translate(54,32)"/>
<path d="M0 0 C40.92 0 81.84 0 124 0 C124 4.29 124 8.58 124 13 C122.35 13 120.7 13 119 13 C119 14.32 119 15.64 119 17 C117.68 17 116.36 17 115 17 C115 18.65 115 20.3 115 22 C112.03 22 109.06 22 106 22 C106 23.65 106 25.3 106 27 C66.4 27 26.8 27 -14 27 C-14 22.38 -14 17.76 -14 13 C-12.35 13 -10.7 13 -9 13 C-9 11.35 -9 9.7 -9 8 C-7.68 8 -6.36 8 -5 8 C-5 6.68 -5 5.36 -5 4 C-3.35 4 -1.7 4 0 4 C0 2.68 0 1.36 0 0 Z " fill="#9C845E" transform="translate(28,152)"/>
<path d="M0 0 C32.34 0 64.68 0 98 0 C98 26.4 98 52.8 98 80 C96.35 80 94.7 80 93 80 C93 81.32 93 82.64 93 84 C62.31 84 31.62 84 0 84 C0 82.68 0 81.36 0 80 C-1.65 80 -3.3 80 -5 80 C-5 54.92 -5 29.84 -5 4 C-3.35 4 -1.7 4 0 4 C0 2.68 0 1.36 0 0 Z M4 8 C4 9.65 4 11.3 4 13 C2.68 13 1.36 13 0 13 C0 32.14 0 51.28 0 71 C1.32 71 2.64 71 4 71 C4 72.32 4 73.64 4 75 C30.4 75 56.8 75 84 75 C84 73.68 84 72.36 84 71 C85.65 71 87.3 71 89 71 C89 51.86 89 32.72 89 13 C87.68 13 86.36 13 85 13 C85 11.35 85 9.7 85 8 C58.27 8 31.54 8 4 8 Z " fill="#CDB58E" transform="translate(50,24)"/>
<path d="M0 0 C26.73 0 53.46 0 81 0 C81 1.65 81 3.3 81 5 C82.32 5 83.64 5 85 5 C85 24.14 85 43.28 85 63 C83.35 63 81.7 63 80 63 C80 64.32 80 65.64 80 67 C53.6 67 27.2 67 0 67 C0 65.68 0 64.36 0 63 C-1.32 63 -2.64 63 -4 63 C-4 43.86 -4 24.72 -4 5 C-2.68 5 -1.36 5 0 5 C0 3.35 0 1.7 0 0 Z M10 10 C10 11.32 10 12.64 10 14 C8.35 14 6.7 14 5 14 C5 27.2 5 40.4 5 54 C6.32 54 7.64 54 9 54 C9 55.32 9 56.64 9 58 C29.79 58 50.58 58 72 58 C72 56.68 72 55.36 72 54 C73.32 54 74.64 54 76 54 C76 40.8 76 27.6 76 14 C74.35 14 72.7 14 71 14 C71 12.68 71 11.36 71 10 C50.87 10 30.74 10 10 10 Z " fill="#483D34" transform="translate(54,32)"/>
<path d="M0 0 C7.26 0 14.52 0 22 0 C22.95366977 15.02029886 23.11452078 29.95197008 23 45 C20.525 45.495 20.525 45.495 18 46 C18.33 47.98 18.66 49.96 19 52 C18.360625 52.12375 17.72125 52.2475 17.0625 52.375 C16.381875 52.58125 15.70125 52.7875 15 53 C14.67 53.66 14.34 54.32 14 55 C12.35 55 10.7 55 9 55 C9 56.32 9 57.64 9 59 C6.03 59 3.06 59 0 59 C0 60.65 0 62.3 0 64 C-1.32 64 -2.64 64 -4 64 C-4 65.32 -4 66.64 -4 68 C-5.32 68 -6.64 68 -8 68 C-8 69.65 -8 71.3 -8 73 C-8.99 73 -9.98 73 -11 73 C-11.33 73.99 -11.66 74.98 -12 76 C-13.32 75.67 -14.64 75.34 -16 75 C-16.33 75.66 -16.66 76.32 -17 77 C-58.58 77 -100.16 77 -143 77 C-143 75.68 -143 74.36 -143 73 C-144.65 73 -146.3 73 -148 73 C-148 67.72 -148 62.44 -148 57 C-146.35 57 -144.7 57 -143 57 C-143 55.68 -143 54.36 -143 53 C-141.68 53 -140.36 53 -139 53 C-139 51.35 -139 49.7 -139 48 C-137.68 48 -136.36 48 -135 48 C-134.67 46.68 -134.34 45.36 -134 44 C-132.68 44 -131.36 44 -130 44 C-129.67 34.1 -129.34 24.2 -129 14 C-127.68 14 -126.36 14 -125 14 C-125 22.91 -125 31.82 -125 41 C-85.4 41 -45.8 41 -5 41 C-5 32.09 -5 23.18 -5 14 C-3.68 14 -2.36 14 -1 14 C-1 27.2 -1 40.4 -1 54 C0.65 54 2.3 54 4 54 C4 52.35 4 50.7 4 49 C5.32 49 6.64 49 8 49 C8 47.68 8 46.36 8 45 C9.65 45 11.3 45 13 45 C13 43.68 13 42.36 13 41 C15.64 41 18.28 41 21 41 C21 28.13 21 15.26 21 2 C14.07 2 7.14 2 0 2 C0 1.34 0 0.68 0 0 Z M-129 45 C-129 46.32 -129 47.64 -129 49 C-130.65 49 -132.3 49 -134 49 C-134 50.32 -134 51.64 -134 53 C-135.32 53 -136.64 53 -138 53 C-138 54.65 -138 56.3 -138 58 C-139.65 58 -141.3 58 -143 58 C-143 62.62 -143 67.24 -143 72 C-103.4 72 -63.8 72 -23 72 C-23 70.35 -23 68.7 -23 67 C-20.03 67 -17.06 67 -14 67 C-14 65.35 -14 63.7 -14 62 C-12.68 62 -11.36 62 -10 62 C-10 60.68 -10 59.36 -10 58 C-8.35 58 -6.7 58 -5 58 C-5 53.71 -5 49.42 -5 45 C-45.92 45 -86.84 45 -129 45 Z " fill="#40342C" transform="translate(157,107)"/>
<path d="M0 0 C2.97 0 5.94 0 9 0 C9 2.64 9 5.28 9 8 C39.69 8 70.38 8 102 8 C102 15.26 102 22.52 102 30 C100.68 30 99.36 30 98 30 C98 25.71 98 21.42 98 17 C81.5 17 65 17 48 17 C48 21.29 48 25.58 48 30 C26.55 30 5.1 30 -17 30 C-17 23.07 -17 16.14 -17 9 C-14.36 9 -11.72 9 -9 9 C-9 7.35 -9 5.7 -9 4 C-6.03 4 -3.06 4 0 4 C0 2.68 0 1.36 0 0 Z " fill="#D0B791" transform="translate(50,113)"/>
<path d="M0 0 C3.96 0 7.92 0 12 0 C12 0.99 12 1.98 12 3 C10.68 3 9.36 3 8 3 C8 5.97 8 8.94 8 12 C6.68 12 5.36 12 4 12 C4 13.65 4 15.3 4 17 C2.35 17 0.7 17 -1 17 C-1 19.97 -1 22.94 -1 26 C-40.6 26 -80.2 26 -121 26 C-121 21.38 -121 16.76 -121 12 C-119.35 12 -117.7 12 -116 12 C-116 10.68 -116 9.36 -116 8 C-114.35 8 -112.7 8 -111 8 C-111 9.32 -111 10.64 -111 12 C-109.68 12 -108.36 12 -107 12 C-107 10.68 -107 9.36 -107 8 C-105.68 8 -104.36 8 -103 8 C-103 9.32 -103 10.64 -103 12 C-101.35 12 -99.7 12 -98 12 C-98 10.68 -98 9.36 -98 8 C-96.68 8 -95.36 8 -94 8 C-94 10.97 -94 13.94 -94 17 C-73.54 17 -53.08 17 -32 17 C-32 15.35 -32 13.7 -32 12 C-27.38 12 -22.76 12 -18 12 C-18 10.68 -18 9.36 -18 8 C-16.68 8 -15.36 8 -14 8 C-14 9.32 -14 10.64 -14 12 C-12.35 12 -10.7 12 -9 12 C-9 10.68 -9 9.36 -9 8 C-7.68 8 -6.36 8 -5 8 C-5 9.32 -5 10.64 -5 12 C-3.68 12 -2.36 12 -1 12 C-1 10.68 -1 9.36 -1 8 C0.65 8 2.3 8 4 8 C4 6.35 4 4.7 4 3 C2.68 3 1.36 3 0 3 C0 2.01 0 1.02 0 0 Z " fill="#BB9D74" transform="translate(135,153)"/>
<path d="M0 0 C2.97 0 5.94 0 9 0 C9 0.33 9 0.66 9 1 C6.36 1 3.72 1 1 1 C1 7.93 1 14.86 1 22 C22.45 22 43.9 22 66 22 C66 17.71 66 13.42 66 9 C82.5 9 99 9 116 9 C116 13.29 116 17.58 116 22 C117.32 22 118.64 22 120 22 C120 23.65 120 25.3 120 27 C80.4 27 40.8 27 0 27 C0 18.09 0 9.18 0 0 Z " fill="#A48A65" transform="translate(32,121)"/>
<path d="M0 0 C23.43 0 46.86 0 71 0 C71 1.32 71 2.64 71 4 C72.32 4 73.64 4 75 4 C75 20.17 75 36.34 75 53 C73.68 53 72.36 53 71 53 C71 54.65 71 56.3 71 58 C47.57 58 24.14 58 0 58 C0 56.35 0 54.7 0 53 C-1.65 53 -3.3 53 -5 53 C-5 36.83 -5 20.66 -5 4 C-3.35 4 -1.7 4 0 4 C0 2.68 0 1.36 0 0 Z M5 5 C5 6.32 5 7.64 5 9 C3.35 9 1.7 9 0 9 C0 22.2 0 35.4 0 49 C1.32 49 2.64 49 4 49 C4 50.32 4 51.64 4 53 C24.79 53 45.58 53 67 53 C67 51.68 67 50.36 67 49 C68.32 49 69.64 49 71 49 C71 35.8 71 22.6 71 9 C69.35 9 67.7 9 66 9 C66 7.68 66 6.36 66 5 C45.87 5 25.74 5 5 5 Z " fill="#1D3846" transform="translate(59,37)"/>
<path d="M0 0 C33 0 66 0 100 0 C100 1.65 100 3.3 100 5 C102.64 5 105.28 5 108 5 C108 6.32 108 7.64 108 9 C109.65 9 111.3 9 113 9 C113 10.65 113 12.3 113 14 C114.32 14 115.64 14 117 14 C117 16.97 117 19.94 117 23 C118.65 23 120.3 23 122 23 C124.3868277 27.69169914 124.30633807 32.00219789 124.30078125 37.140625 C124.30506638 38.02224304 124.3093515 38.90386108 124.31376648 39.81219482 C124.31949785 41.67475529 124.32001885 43.53733813 124.31567383 45.39990234 C124.31252602 48.22663362 124.33594539 51.05230513 124.36132812 53.87890625 C124.36360269 55.69531119 124.36430388 57.51171892 124.36328125 59.328125 C124.372491 60.16281311 124.38170074 60.99750122 124.39118958 61.85748291 C124.34580921 67.71532873 123.14962442 72.55903558 121 78 C119.02 77.505 119.02 77.505 117 77 C117.99 76.67 118.98 76.34 120 76 C120 58.84 120 41.68 120 24 C118.68 24 117.36 24 116 24 C116 21.03 116 18.06 116 15 C113.03 15 110.06 15 107 15 C107 12.03 107 9.06 107 6 C72.02 6 37.04 6 1 6 C1 7.32 1 8.64 1 10 C-1.97 10 -4.94 10 -8 10 C-8 35.08 -8 60.16 -8 86 C-8.33 86 -8.66 86 -9 86 C-9 60.59 -9 35.18 -9 9 C-7.68 9 -6.36 9 -5 9 C-5 7.68 -5 6.36 -5 5 C-3.35 5 -1.7 5 0 5 C0 3.35 0 1.7 0 0 Z " fill="#1D1815" transform="translate(49,18)"/>
<path d="M0 0 C8.91 0 17.82 0 27 0 C27 11.88 27 23.76 27 36 C25.68 36 24.36 36 23 36 C23 37.32 23 38.64 23 40 C21.35 40 19.7 40 18 40 C18 41.32 18 42.64 18 44 C16.68 44 15.36 44 14 44 C14 45.65 14 47.3 14 49 C12.35 49 10.7 49 9 49 C9 35.8 9 22.6 9 9 C4.71 9 0.42 9 -4 9 C-4 7.35 -4 5.7 -4 4 C-2.68 4 -1.36 4 0 4 C0 2.68 0 1.36 0 0 Z " fill="#867257" transform="translate(147,112)"/>
<path d="M0 0 C1.32 0 2.64 0 4 0 C4 1.65 4 3.3 4 5 C5.65 5 7.3 5 9 5 C9 9.29 9 13.58 9 18 C10.32 18 11.64 18 13 18 C13 33.84 13 49.68 13 66 C11.68 66 10.36 66 9 66 C9 67.65 9 69.3 9 71 C7.35 71 5.7 71 4 71 C4 72.32 4 73.64 4 75 C2.68 75 1.36 75 0 75 C0 50.25 0 25.5 0 0 Z " fill="#A68D6A" transform="translate(152,28)"/>
<path d="M0 0 C7.26 0 14.52 0 22 0 C22.95366977 15.02029886 23.11452078 29.95197008 23 45 C20.525 45.495 20.525 45.495 18 46 C18.33 47.98 18.66 49.96 19 52 C18.360625 52.12375 17.72125 52.2475 17.0625 52.375 C16.381875 52.58125 15.70125 52.7875 15 53 C14.67 53.66 14.34 54.32 14 55 C12.35 55 10.7 55 9 55 C9 56.32 9 57.64 9 59 C6.03 59 3.06 59 0 59 C0 60.65 0 62.3 0 64 C-1.32 64 -2.64 64 -4 64 C-4 65.32 -4 66.64 -4 68 C-5.32 68 -6.64 68 -8 68 C-8 69.65 -8 71.3 -8 73 C-8.99 73 -9.98 73 -11 73 C-11.33 73.99 -11.66 74.98 -12 76 C-13.32 75.67 -14.64 75.34 -16 75 C-16.33 75.66 -16.66 76.32 -17 77 C-58.58 77 -100.16 77 -143 77 C-143 75.68 -143 74.36 -143 73 C-144.65 73 -146.3 73 -148 73 C-148 67.72 -148 62.44 -148 57 C-146.35 57 -144.7 57 -143 57 C-143 55.68 -143 54.36 -143 53 C-141.68 53 -140.36 53 -139 53 C-139 51.35 -139 49.7 -139 48 C-137.35 48.33 -135.7 48.66 -134 49 C-134 50.32 -134 51.64 -134 53 C-135.32 53 -136.64 53 -138 53 C-138 54.65 -138 56.3 -138 58 C-139.65 58 -141.3 58 -143 58 C-142.67 63.94 -142.34 69.88 -142 76 C-140.61699203 75.92894547 -139.23398407 75.85789093 -137.80906677 75.78468323 C-123.56182152 75.08804913 -109.35995355 74.8656265 -95.09765625 74.90234375 C-92.91092461 74.90421597 -90.72419254 74.90563605 -88.53746033 74.90663147 C-82.86765318 74.9103935 -77.19787292 74.9201673 -71.52807617 74.93133545 C-65.70817427 74.94168786 -59.88826789 74.94615827 -54.06835938 74.95117188 C-42.71222797 74.96179734 -31.35611625 74.97879465 -20 75 C-19.01 73.02 -19.01 73.02 -18 71 C-15.36 71 -12.72 71 -10 71 C-10 69.68 -10 68.36 -10 67 C-8.35 67 -6.7 67 -5 67 C-4.67 65.35 -4.34 63.7 -4 62 C-3.01 62 -2.02 62 -1 62 C-1 59.36 -1 56.72 -1 54 C0.65 54 2.3 54 4 54 C4 52.35 4 50.7 4 49 C5.32 49 6.64 49 8 49 C8 47.68 8 46.36 8 45 C9.65 45 11.3 45 13 45 C13 43.68 13 42.36 13 41 C15.64 41 18.28 41 21 41 C21 28.13 21 15.26 21 2 C14.07 2 7.14 2 0 2 C0 1.34 0 0.68 0 0 Z " fill="#221C19" transform="translate(157,107)"/>
<path d="M0 0 C1.65 0 3.3 0 5 0 C5 26.4 5 52.8 5 80 C3.35 80 1.7 80 0 80 C0 81.32 0 82.64 0 84 C-30.69 84 -61.38 84 -93 84 C-93 82.68 -93 81.36 -93 80 C-94.65 80 -96.3 80 -98 80 C-98 54.92 -98 29.84 -98 4 C-96.35 4 -94.7 4 -93 4 C-94.32 4.33 -95.64 4.66 -97 5 C-97 28.1 -97 51.2 -97 75 C-95.68 75 -94.36 75 -93 75 C-93 76.32 -93 77.64 -93 79 C-60.99 79 -28.98 79 4 79 C4 54.25 4 29.5 4 4 C2.68 4 1.36 4 0 4 C0 2.68 0 1.36 0 0 Z " fill="#968062" transform="translate(143,24)"/>
<path d="M0 0 C15.84 0 31.68 0 48 0 C48 4.29 48 8.58 48 13 C32.16 13 16.32 13 0 13 C0 8.71 0 4.42 0 0 Z " fill="#3E322B" transform="translate(99,130)"/>
<path d="M0 0 C1.65 0 3.3 0 5 0 C3.68 0.33 2.36 0.66 1 1 C1 3.64 1 6.28 1 9 C40.27 9 79.54 9 120 9 C120 10.65 120 12.3 120 14 C80.4 14 40.8 14 0 14 C0 9.38 0 4.76 0 0 Z " fill="#836F56" transform="translate(14,165)"/>
<path d="M0 0 C0.33 0 0.66 0 1 0 C1 13.2 1 26.4 1 40 C-0.32 40 -1.64 40 -3 40 C-3 41.32 -3 42.64 -3 44 C-23.79 44 -44.58 44 -66 44 C-66 42.68 -66 41.36 -66 40 C-67.32 40 -68.64 40 -70 40 C-70 38.35 -70 36.7 -70 35 C-67.03 35 -64.06 35 -61 35 C-61 36.32 -61 37.64 -61 39 C-51.1 39 -41.2 39 -31 39 C-31 37.68 -31 36.36 -31 35 C-26.38 35 -21.76 35 -17 35 C-17 33.68 -17 32.36 -17 31 C-12.71 31 -8.42 31 -4 31 C-4 29.35 -4 27.7 -4 26 C-2.68 26 -1.36 26 0 26 C0 17.42 0 8.84 0 0 Z " fill="#25546C" transform="translate(129,46)"/>
<path d="M0 0 C2.97 0 5.94 0 9 0 C9 2.97 9 5.94 9 9 C39.36 9 69.72 9 101 9 C101 10.32 101 11.64 101 13 C62.06 13 23.12 13 -17 13 C-17 11.68 -17 10.36 -17 9 C-14.36 9 -11.72 9 -9 9 C-9 7.35 -9 5.7 -9 4 C-6.03 4 -3.06 4 0 4 C0 2.68 0 1.36 0 0 Z " fill="#E3C999" transform="translate(50,113)"/>
<path d="M0 0 C26.07 0 52.14 0 79 0 C79 1.32 79 2.64 79 4 C80.32 4 81.64 4 83 4 C83 22.81 83 41.62 83 61 C81.68 61 80.36 61 79 61 C79 43.51 79 26.02 79 8 C77.68 8 76.36 8 75 8 C75 6.68 75 5.36 75 4 C50.25 4 25.5 4 0 4 C0 2.68 0 1.36 0 0 Z " fill="#40352E" transform="translate(55,33)"/>
<path d="M0 0 C2.97 0 5.94 0 9 0 C9 1.32 9 2.64 9 4 C8.01 4.33 7.02 4.66 6 5 C5.26676204 7.01508358 5.26676204 7.01508358 5 9 C3.35 9 1.7 9 0 9 C0 10.32 0 11.64 0 13 C-1.27875 13.0825 -2.5575 13.165 -3.875 13.25 C-6.04634555 13.30367785 -6.04634555 13.30367785 -8 14 C-8.66 15.32 -9.32 16.64 -10 18 C-50.26 18 -90.52 18 -132 18 C-132 16.68 -132 15.36 -132 14 C-92.73 14 -53.46 14 -13 14 C-13 12.35 -13 10.7 -13 9 C-10.03 9 -7.06 9 -4 9 C-4 7.35 -4 5.7 -4 4 C-2.68 4 -1.36 4 0 4 C0 2.68 0 1.36 0 0 Z " fill="#352B25" transform="translate(147,165)"/>
<path d="M0 0 C1.32 0 2.64 0 4 0 C4 1.32 4 2.64 4 4 C5.65 4 7.3 4 9 4 C9 2.68 9 1.36 9 0 C10.32 0 11.64 0 13 0 C13 1.32 13 2.64 13 4 C14.65 4 16.3 4 18 4 C18 2.68 18 1.36 18 0 C19.32 0 20.64 0 22 0 C22 1.65 22 3.3 22 5 C23.65 5 25.3 5 27 5 C27 3.35 27 1.7 27 0 C28.32 0 29.64 0 31 0 C31 1.65 31 3.3 31 5 C32.65 5 34.3 5 36 5 C36 3.35 36 1.7 36 0 C37.32 0 38.64 0 40 0 C40 1.32 40 2.64 40 4 C41.65 4 43.3 4 45 4 C45 2.68 45 1.36 45 0 C46.32 0 47.64 0 49 0 C49 1.32 49 2.64 49 4 C50.32 4 51.64 4 53 4 C53 2.68 53 1.36 53 0 C54.32 0 55.64 0 57 0 C57 1.32 57 2.64 57 4 C58.65 4 60.3 4 62 4 C62 5.65 62 7.3 62 9 C41.54 9 21.08 9 0 9 C0 6.03 0 3.06 0 0 Z " fill="#786446" transform="translate(41,161)"/>
<path d="M0 0 C32.01 0 64.02 0 97 0 C97 1.32 97 2.64 97 4 C64.99 4 32.98 4 0 4 C0 2.68 0 1.36 0 0 Z " fill="#453B32" transform="translate(50,20)"/>
<path d="M0 0 C23.43 0 46.86 0 71 0 C71 1.65 71 3.3 71 5 C47.57 5 24.14 5 0 5 C0 3.35 0 1.7 0 0 Z " fill="#7B6952" transform="translate(63,112)"/>
<path d="M0 0 C3.96 0 7.92 0 12 0 C12 0.99 12 1.98 12 3 C10.68 3 9.36 3 8 3 C8 5.97 8 8.94 8 12 C6.68 12 5.36 12 4 12 C4 13.65 4 15.3 4 17 C-7.88 17 -19.76 17 -32 17 C-32 15.35 -32 13.7 -32 12 C-27.38 12 -22.76 12 -18 12 C-18 10.68 -18 9.36 -18 8 C-16.68 8 -15.36 8 -14 8 C-14 9.32 -14 10.64 -14 12 C-12.35 12 -10.7 12 -9 12 C-9 10.68 -9 9.36 -9 8 C-7.68 8 -6.36 8 -5 8 C-5 9.32 -5 10.64 -5 12 C-3.68 12 -2.36 12 -1 12 C-1 10.68 -1 9.36 -1 8 C0.65 8 2.3 8 4 8 C4 6.35 4 4.7 4 3 C2.68 3 1.36 3 0 3 C0 2.01 0 1.02 0 0 Z " fill="#C6AC80" transform="translate(135,153)"/>
<path d="M0 0 C1.32 0 2.64 0 4 0 C4 24.42 4 48.84 4 74 C2.68 74 1.36 74 0 74 C0 49.58 0 25.16 0 0 Z " fill="#E3CA97" transform="translate(143,29)"/>
<path d="M0 0 C1.65 0 3.3 0 5 0 C5 26.4 5 52.8 5 80 C-28.99 80 -62.98 80 -98 80 C-98 54.92 -98 29.84 -98 4 C-96.35 4 -94.7 4 -93 4 C-94.32 4.33 -95.64 4.66 -97 5 C-97 28.1 -97 51.2 -97 75 C-95.68 75 -94.36 75 -93 75 C-93 76.32 -93 77.64 -93 79 C-60.99 79 -28.98 79 4 79 C4 54.25 4 29.5 4 4 C2.68 4 1.36 4 0 4 C0 2.68 0 1.36 0 0 Z " fill="#A79175" transform="translate(143,24)"/>
<path d="M0 0 C15.84 0 31.68 0 48 0 C48 4.29 48 8.58 48 13 C46.68 13 45.36 13 44 13 C44 11.68 44 10.36 44 9 C39.71 9 35.42 9 31 9 C31 7.35 31 5.7 31 4 C35.29 4 39.58 4 44 4 C44 3.01 44 2.02 44 1 C30.8 1 17.6 1 4 1 C4 1.99 4 2.98 4 4 C8.62 4 13.24 4 18 4 C18 5.65 18 7.3 18 9 C13.71 9 9.42 9 5 9 C5 10.32 5 11.64 5 13 C3.35 13 1.7 13 0 13 C0 8.71 0 4.42 0 0 Z " fill="#574035" transform="translate(99,130)"/>
<path d="M0 0 C30.36 0 60.72 0 92 0 C92 0.99 92 1.98 92 3 C61.64 3 31.28 3 0 3 C0 2.01 0 1.02 0 0 Z " fill="#E3C998" transform="translate(51,25)"/>
<path d="M0 0 C0.33 0.99 0.66 1.98 1 3 C3.64 3 6.28 3 9 3 C9 4.32 9 5.64 9 7 C10.65 7 12.3 7 14 7 C14 8.65 14 10.3 14 12 C15.32 12 16.64 12 18 12 C18 14.97 18 17.94 18 21 C19.65 21 21.3 21 23 21 C25.3868277 25.69169914 25.30633807 30.00219789 25.30078125 35.140625 C25.30506638 36.02224304 25.3093515 36.90386108 25.31376648 37.81219482 C25.31949785 39.67475529 25.32001885 41.53733813 25.31567383 43.39990234 C25.31252602 46.22663362 25.33594539 49.05230513 25.36132812 51.87890625 C25.36360269 53.69531119 25.36430388 55.51171892 25.36328125 57.328125 C25.372491 58.16281311 25.38170074 58.99750122 25.39118958 59.85748291 C25.34580921 65.71532873 24.14962442 70.55903558 22 76 C20.68 75.67 19.36 75.34 18 75 C19.485 74.505 19.485 74.505 21 74 C21 56.84 21 39.68 21 22 C19.68 22 18.36 22 17 22 C17 19.03 17 16.06 17 13 C14.03 13 11.06 13 8 13 C8 10.03 8 7.06 8 4 C5.36 4 2.72 4 0 4 C0 2.68 0 1.36 0 0 Z " fill="#29221E" transform="translate(148,20)"/>
<path d="M0 0 C40.92 0 81.84 0 124 0 C123.67 0.66 123.34 1.32 123 2 C107.25811163 2.04667656 91.51624188 2.08196748 75.77430153 2.10362434 C68.46539627 2.11394632 61.15653395 2.12802417 53.84765625 2.15087891 C47.4788254 2.17078467 41.11002565 2.18370973 34.74116457 2.18817699 C31.3674595 2.19078916 27.99384339 2.19694785 24.62016678 2.21146011 C20.85821413 2.22589009 17.09644833 2.22798151 13.33447266 2.22705078 C12.21022385 2.23424133 11.08597504 2.24143188 9.92765808 2.24884033 C8.90679611 2.246091 7.88593414 2.24334167 6.83413696 2.24050903 C5.94368494 2.24235262 5.05323292 2.24419621 4.1357975 2.24609566 C2 2 2 2 0 0 Z " fill="#3A3028" transform="translate(14,185)"/>
<path d="M0 0 C8.91 0 17.82 0 27 0 C25.68 0.33 24.36 0.66 23 1 C23 2.32 23 3.64 23 5 C20.03 5 17.06 5 14 5 C14 6.32 14 7.64 14 9 C12.68 9 11.36 9 10 9 C10 21.87 10 34.74 10 48 C10.99 48 11.98 48 13 48 C13.33 46.68 13.66 45.36 14 44 C14 45.65 14 47.3 14 49 C12.35 49 10.7 49 9 49 C9 35.8 9 22.6 9 9 C4.71 9 0.42 9 -4 9 C-4 7.35 -4 5.7 -4 4 C-2.68 4 -1.36 4 0 4 C0 2.68 0 1.36 0 0 Z " fill="#7A674F" transform="translate(147,112)"/>
<path d="M0 0 C1.65 0.33 3.3 0.66 5 1 C5 2.32 5 3.64 5 5 C3.68 5 2.36 5 1 5 C1 6.65 1 8.3 1 10 C-0.65 10 -2.3 10 -4 10 C-3.67 15.94 -3.34 21.88 -3 28 C-0.09058594 27.83628906 2.81882812 27.67257813 5.81640625 27.50390625 C23.8797036 26.64011056 41.97659822 26.88848665 60.05493164 26.93133545 C64.90966348 26.94171759 69.76440079 26.9461644 74.61914062 26.95117188 C84.07944113 26.9617738 93.53971781 26.9787535 103 27 C103 27.33 103 27.66 103 28 C92.88797532 28.13237111 82.77592819 28.26286739 72.66385078 28.39115143 C67.96534184 28.45081279 63.26684201 28.5110532 58.56835938 28.57275391 C37.71134411 28.84623166 16.85925391 29.09632535 -4 29 C-4 27.68 -4 26.36 -4 25 C-5.65 25 -7.3 25 -9 25 C-9 19.72 -9 14.44 -9 9 C-7.35 9 -5.7 9 -4 9 C-4 7.68 -4 6.36 -4 5 C-2.68 5 -1.36 5 0 5 C0 3.35 0 1.7 0 0 Z " fill="#241D1A" transform="translate(18,155)"/>
<path d="M0 0 C7.26 0 14.52 0 22 0 C22 1.32 22 2.64 22 4 C21.01 4.33 20.02 4.66 19 5 C18.67 7.97 18.34 10.94 18 14 C16.35 14 14.7 14 13 14 C13 12.35 13 10.7 13 9 C11.68 9 10.36 9 9 9 C9 10.65 9 12.3 9 14 C7.35 14 5.7 14 4 14 C4 10.7 4 7.4 4 4 C2.68 4 1.36 4 0 4 C0 2.68 0 1.36 0 0 Z " fill="#A08761" transform="translate(59,152)"/>
<path d="M0 0 C1.32 0.33 2.64 0.66 4 1 C3.01 1 2.02 1 1 1 C1 25.42 1 49.84 1 75 C3.64 75.33 6.28 75.66 9 76 C9 78.64 9 81.28 9 84 C6.03 84 3.06 84 0 84 C0 86.97 0 89.94 0 93 C-4.29 93 -8.58 93 -13 93 C-13 99.93 -13 106.86 -13 114 C-13.33 114 -13.66 114 -14 114 C-14 106.74 -14 99.48 -14 92 C-12.68 92 -11.36 92 -10 92 C-10 90.68 -10 89.36 -10 88 C-7.03 88 -4.06 88 -1 88 C-1 86.35 -1 84.7 -1 83 C1.97 83 4.94 83 8 83 C8 82.34 8 81.68 8 81 C6.35 81 4.7 81 3 81 C3 79.35 3 77.7 3 76 C2.01 76 1.02 76 0 76 C0 50.92 0 25.84 0 0 Z " fill="#362D26" transform="translate(41,28)"/>
<path d="M0 0 C1.98 0.495 1.98 0.495 4 1 C3.01 1 2.02 1 1 1 C1 2.32 1 3.64 1 5 C-0.65 5 -2.3 5 -4 5 C-4 6.32 -4 7.64 -4 9 C-6.97 9 -9.94 9 -13 9 C-13 10.65 -13 12.3 -13 14 C-14.32 14 -15.64 14 -17 14 C-17 15.32 -17 16.64 -17 18 C-18.32 18 -19.64 18 -21 18 C-21 19.65 -21 21.3 -21 23 C-21.99 23 -22.98 23 -24 23 C-24.495 24.485 -24.495 24.485 -25 26 C-26.32 25.67 -27.64 25.34 -29 25 C-29.33 25.66 -29.66 26.32 -30 27 C-63 27 -96 27 -130 27 C-130 26.67 -130 26.34 -130 26 C-81.985 25.505 -81.985 25.505 -33 25 C-32.34 23.68 -31.68 22.36 -31 21 C-28.36 21 -25.72 21 -23 21 C-23 19.68 -23 18.36 -23 17 C-21.35 17 -19.7 17 -18 17 C-17.67 15.35 -17.34 13.7 -17 12 C-16.01 12 -15.02 12 -14 12 C-14 10.68 -14 9.36 -14 8 C-11.03 8 -8.06 8 -5 8 C-5 6.68 -5 5.36 -5 4 C-3.35 4 -1.7 4 0 4 C0 2.68 0 1.36 0 0 Z " fill="#1C1614" transform="translate(170,157)"/>
<path d="M0 0 C26.73 0 53.46 0 81 0 C81 1.65 81 3.3 81 5 C80.505 3.02 80.505 3.02 80 1 C53.93 1 27.86 1 1 1 C1 2.32 1 3.64 1 5 C2.32 5 3.64 5 5 5 C5 6.32 5 7.64 5 9 C3.35 9 1.7 9 0 9 C0 8.01 0 7.02 0 6 C-0.99 6 -1.98 6 -3 6 C-3 24.48 -3 42.96 -3 62 C-1.68 62 -0.36 62 1 62 C1 61.01 1 60.02 1 59 C1.99 59 2.98 59 4 59 C4 60.32 4 61.64 4 63 C3.01 63 2.02 63 1 63 C0.67 64.32 0.34 65.64 0 67 C0 65.68 0 64.36 0 63 C-1.32 63 -2.64 63 -4 63 C-4 43.86 -4 24.72 -4 5 C-2.68 5 -1.36 5 0 5 C0 3.35 0 1.7 0 0 Z " fill="#716557" transform="translate(54,32)"/>
<path d="M0 0 C0.99 0 1.98 0 3 0 C3 18.48 3 36.96 3 56 C2.01 56 1.02 56 0 56 C0 37.52 0 19.04 0 0 Z " fill="#3E342C" transform="translate(51,38)"/>
<path d="M0 0 C1.65 0 3.3 0 5 0 C5 1.32 5 2.64 5 4 C6.32 4 7.64 4 9 4 C9 5.65 9 7.3 9 9 C7.68 9 6.36 9 5 9 C5 10.32 5 11.64 5 13 C3.35 13 1.7 13 0 13 C0 11.68 0 10.36 0 9 C-1.32 9 -2.64 9 -4 9 C-4 10.32 -4 11.64 -4 13 C-5.65 13 -7.3 13 -9 13 C-9 10.03 -9 7.06 -9 4 C-6.03 4 -3.06 4 0 4 C0 2.68 0 1.36 0 0 Z " fill="#A88D65" transform="translate(54,152)"/>
<path d="M0 0 C1.32 0 2.64 0 4 0 C4 2.64 4 5.28 4 8 C2.35 8 0.7 8 -1 8 C-1 9.32 -1 10.64 -1 12 C-2.32 12 -3.64 12 -5 12 C-5 13.65 -5 15.3 -5 17 C-7.97 17 -10.94 17 -14 17 C-14 15.68 -14 14.36 -14 13 C-12.35 13 -10.7 13 -9 13 C-9 11.35 -9 9.7 -9 8 C-7.68 8 -6.36 8 -5 8 C-5 6.68 -5 5.36 -5 4 C-3.35 4 -1.7 4 0 4 C0 2.68 0 1.36 0 0 Z " fill="#836E54" transform="translate(148,157)"/>
<path d="M0 0 C1.65 0 3.3 0 5 0 C5 1.65 5 3.3 5 5 C10.28 5 15.56 5 21 5 C21 5.99 21 6.98 21 8 C15.28094617 8.82536345 9.7732851 9.12753701 4 9.0625 C2.83791016 9.05573242 2.83791016 9.05573242 1.65234375 9.04882812 C-0.23180524 9.03719758 -2.11591365 9.01926906 -4 9 C-4 7.68 -4 6.36 -4 5 C-2.68 5 -1.36 5 0 5 C0 3.35 0 1.7 0 0 Z " fill="#DFC492" transform="translate(19,161)"/>
<path d="M0 0 C7.26 0 14.52 0 22 0 C22 1.65 22 3.3 22 5 C14.74 5 7.48 5 0 5 C0 3.35 0 1.7 0 0 Z " fill="#8C785B" transform="translate(41,134)"/>
<path d="M0 0 C2.97 0 5.94 0 9 0 C9 2.64 9 5.28 9 8 C3.06 8 -2.88 8 -9 8 C-9 6.68 -9 5.36 -9 4 C-6.03 4 -3.06 4 0 4 C0 2.68 0 1.36 0 0 Z " fill="#B4966C" transform="translate(50,113)"/>
<path d="M0 0 C4.29 0 8.58 0 13 0 C13 1.32 13 2.64 13 4 C11.68 4 10.36 4 9 4 C9 7.3 9 10.6 9 14 C7.35 14 5.7 14 4 14 C4 10.7 4 7.4 4 4 C2.68 4 1.36 4 0 4 C0 2.68 0 1.36 0 0 Z " fill="#977F5B" transform="translate(59,152)"/>
<path d="M0 0 C1.65 0 3.3 0 5 0 C5 26.4 5 52.8 5 80 C3.35 80 1.7 80 0 80 C1.98 79.505 1.98 79.505 4 79 C4 54.25 4 29.5 4 4 C2.68 4 1.36 4 0 4 C0 2.68 0 1.36 0 0 Z " fill="#9E8B71" transform="translate(143,24)"/>
<path d="M0 0 C1.32 0 2.64 0 4 0 C4 1.32 4 2.64 4 4 C1.03 4 -1.94 4 -5 4 C-5 6.97 -5 9.94 -5 13 C-9.29 13 -13.58 13 -18 13 C-18 19.93 -18 26.86 -18 34 C-18.33 34 -18.66 34 -19 34 C-19 26.74 -19 19.48 -19 12 C-17.68 12 -16.36 12 -15 12 C-15 10.68 -15 9.36 -15 8 C-12.03 8 -9.06 8 -6 8 C-6 6.35 -6 4.7 -6 3 C-3.03 3 -0.06 3 3 3 C3 2.34 3 1.68 3 1 C2.01 0.67 1.02 0.34 0 0 Z " fill="#24201B" transform="translate(46,108)"/>
<path d="M0 0 C1.16015625 0.04833984 2.3203125 0.09667969 3.515625 0.14648438 C4.7221875 0.20255859 5.92875 0.25863281 7.171875 0.31640625 C8.39390625 0.36861328 9.6159375 0.42082031 10.875 0.47460938 C13.89088981 0.60419839 16.90644146 0.73916201 19.921875 0.87890625 C19.921875 1.86890625 19.921875 2.85890625 19.921875 3.87890625 C10.021875 3.87890625 0.121875 3.87890625 -10.078125 3.87890625 C-10.078125 2.88890625 -10.078125 1.89890625 -10.078125 0.87890625 C-6.62981138 -0.20141985 -3.59591156 -0.15864316 0 0 Z " fill="#E3C793" transform="translate(114.078125,165.12109375)"/>
<path d="M0 0 C2.97 0 5.94 0 9 0 C9 1.65 9 3.3 9 5 C6.03 5 3.06 5 0 5 C0 7.64 0 10.28 0 13 C-1.32 13 -2.64 13 -4 13 C-4 11.68 -4 10.36 -4 9 C-5.65 9 -7.3 9 -9 9 C-7.68 8.67 -6.36 8.34 -5 8 C-5 6.68 -5 5.36 -5 4 C-3.35 4 -1.7 4 0 4 C0 2.68 0 1.36 0 0 Z " fill="#A58E69" transform="translate(28,152)"/>
<path d="M0 0 C1.32 0.33 2.64 0.66 4 1 C3.01 1 2.02 1 1 1 C1 24.1 1 47.2 1 71 C1.99 71 2.98 71 4 71 C4 72.32 4 73.64 4 75 C2.68 75 1.36 75 0 75 C0 50.25 0 25.5 0 0 Z " fill="#947D60" transform="translate(152,28)"/>
<path d="M0 0 C1.32 0 2.64 0 4 0 C4 1.32 4 2.64 4 4 C3.01 4 2.02 4 1 4 C1 5.32 1 6.64 1 8 C20.8 8 40.6 8 61 8 C61 7.01 61 6.02 61 5 C60.01 4.67 59.02 4.34 58 4 C59.32 4 60.64 4 62 4 C62 5.65 62 7.3 62 9 C41.54 9 21.08 9 0 9 C0 6.03 0 3.06 0 0 Z " fill="#867051" transform="translate(41,161)"/>
<path d="M0 0 C1.65 0 3.3 0 5 0 C5 1.32 5 2.64 5 4 C4.360625 4.185625 3.72125 4.37125 3.0625 4.5625 C0.57873787 5.94246056 0.57873787 5.94246056 0.25 9.625 C0.1675 10.73875 0.085 11.8525 0 13 C-2.97 13 -5.94 13 -9 13 C-9 11.68 -9 10.36 -9 9 C-7.35 9 -5.7 9 -4 9 C-4 7.35 -4 5.7 -4 4 C-2.68 4 -1.36 4 0 4 C0 2.68 0 1.36 0 0 Z " fill="#392E27" transform="translate(165,152)"/>
<path d="M0 0 C4.29 0 8.58 0 13 0 C13 1.32 13 2.64 13 4 C11.68 4 10.36 4 9 4 C9 5.32 9 6.64 9 8 C7.35 8 5.7 8 4 8 C4 6.68 4 5.36 4 4 C2.68 4 1.36 4 0 4 C0 2.68 0 1.36 0 0 Z " fill="#967E59" transform="translate(28,157)"/>
<path d="M0 0 C1.65 0 3.3 0 5 0 C5 2.64 5 5.28 5 8 C3.68 8 2.36 8 1 8 C1 9.65 1 11.3 1 13 C-0.65 13 -2.3 13 -4 13 C-4 11.35 -4 9.7 -4 8 C-2.68 8 -1.36 8 0 8 C0 5.36 0 2.72 0 0 Z " fill="#8E785C" transform="translate(160,86)"/>
<path d="M0 0 C0.99 0.33 1.98 0.66 3 1 C2.34 1 1.68 1 1 1 C1.00523682 1.74572266 1.01047363 2.49144531 1.01586914 3.25976562 C1.03679239 6.67316834 1.04970873 10.08655751 1.0625 13.5 C1.07087891 14.67304688 1.07925781 15.84609375 1.08789062 17.0546875 C1.10497844 23.13794882 0.94502752 28.98754144 0 35 C-1.65 35 -3.3 35 -5 35 C-5 33.35 -5 31.7 -5 30 C-3.68 30 -2.36 30 -1 30 C-0.67 20.1 -0.34 10.2 0 0 Z " fill="#372E27" transform="translate(28,121)"/>
<path d="M0 0 C1.32 0 2.64 0 4 0 C4 1.32 4 2.64 4 4 C5.65 4 7.3 4 9 4 C9 2.68 9 1.36 9 0 C10.32 0 11.64 0 13 0 C13 2.97 13 5.94 13 9 C10.03 9 7.06 9 4 9 C4 8.67 4 8.34 4 8 C6.64 8 9.28 8 12 8 C12 7.01 12 6.02 12 5 C6.72 5 1.44 5 -4 5 C-2.68 4.67 -1.36 4.34 0 4 C0 2.68 0 1.36 0 0 Z " fill="#C5AA7D" transform="translate(28,161)"/>
<path d="M0 0 C1.32 0 2.64 0 4 0 C4 4.62 4 9.24 4 14 C2.68 14 1.36 14 0 14 C0 9.38 0 4.76 0 0 Z " fill="#382E27" transform="translate(10,165)"/>
<path d="M0 0 C3.96 0 7.92 0 12 0 C12 0.99 12 1.98 12 3 C10.68 3 9.36 3 8 3 C8 4.65 8 6.3 8 8 C6.68 8 5.36 8 4 8 C4 6.35 4 4.7 4 3 C2.68 3 1.36 3 0 3 C0 2.01 0 1.02 0 0 Z " fill="#E1C591" transform="translate(135,153)"/>
<path d="M0 0 C1.32 0 2.64 0 4 0 C4 1.32 4 2.64 4 4 C5.65 4 7.3 4 9 4 C9 2.68 9 1.36 9 0 C10.32 0 11.64 0 13 0 C13 1.65 13 3.3 13 5 C7.06 5 1.12 5 -5 5 C-5 4.67 -5 4.34 -5 4 C-3.35 4 -1.7 4 0 4 C0 2.68 0 1.36 0 0 Z " fill="#C0A578" transform="translate(117,161)"/>
<path d="M0 0 C0 1.32 0 2.64 0 4 C-0.99 4.33 -1.98 4.66 -3 5 C-3.73323796 7.01508358 -3.73323796 7.01508358 -4 9 C-5.32 9 -6.64 9 -8 9 C-8 6.36 -8 3.72 -8 1 C-5.10765685 0.17361624 -3.11257569 0 0 0 Z " fill="#2C2420" transform="translate(156,165)"/>
<path d="M0 0 C1.65 0.33 3.3 0.66 5 1 C5 2.32 5 3.64 5 5 C3.68 5 2.36 5 1 5 C1 6.65 1 8.3 1 10 C-0.65 10 -2.3 10 -4 10 C-4 8.35 -4 6.7 -4 5 C-2.68 5 -1.36 5 0 5 C0 3.35 0 1.7 0 0 Z " fill="#322B25" transform="translate(18,155)"/>
<path d="M0 0 C1.65 0 3.3 0 5 0 C5 1.65 5 3.3 5 5 C3.68 5 2.36 5 1 5 C1 6.32 1 7.64 1 9 C-0.65 9 -2.3 9 -4 9 C-4 7.35 -4 5.7 -4 4 C-2.68 4 -1.36 4 0 4 C0 2.68 0 1.36 0 0 Z " fill="#AF936B" transform="translate(147,152)"/>
<path d="M0 0 C1.65 0 3.3 0 5 0 C4.67 1.65 4.34 3.3 4 5 C2.68 5 1.36 5 0 5 C0 6.32 0 7.64 0 9 C-1.32 9 -2.64 9 -4 9 C-3.67 7.35 -3.34 5.7 -3 4 C-2.01 4 -1.02 4 0 4 C0 2.68 0 1.36 0 0 Z " fill="#B0956B" transform="translate(81,152)"/>
<path d="M0 0 C1.65 0 3.3 0 5 0 C5 1.32 5 2.64 5 4 C6.32 4 7.64 4 9 4 C9 5.32 9 6.64 9 8 C7.35 8 5.7 8 4 8 C4 6.68 4 5.36 4 4 C2.68 4 1.36 4 0 4 C0 2.68 0 1.36 0 0 Z " fill="#B4986D" transform="translate(94,157)"/>
<path d="M0 0 C2.97 0 5.94 0 9 0 C9 2.64 9 5.28 9 8 C8.67 6.68 8.34 5.36 8 4 C5.36 4 2.72 4 0 4 C0 2.68 0 1.36 0 0 Z " fill="#847056" transform="translate(50,113)"/>
<path d="M0 0 C1.65 0 3.3 0 5 0 C5 2.64 5 5.28 5 8 C3.35 8 1.7 8 0 8 C0 5.36 0 2.72 0 0 Z " fill="#4694A8" transform="translate(63,51)"/>
<path d="M0 0 C2.97 0 5.94 0 9 0 C9 1.32 9 2.64 9 4 C6.03 4 3.06 4 0 4 C0 2.68 0 1.36 0 0 Z " fill="#2A221F" transform="translate(156,161)"/>
<path d="M0 0 C2.97 0 5.94 0 9 0 C9 1.32 9 2.64 9 4 C6.03 4 3.06 4 0 4 C0 2.68 0 1.36 0 0 Z " fill="#B5976E" transform="translate(161,117)"/>
<path d="M0 0 C1.65 0 3.3 0 5 0 C3.68 0.33 2.36 0.66 1 1 C1 3.64 1 6.28 1 9 C-0.65 9 -2.3 9 -4 9 C-4 7.35 -4 5.7 -4 4 C-2.68 4 -1.36 4 0 4 C0 2.68 0 1.36 0 0 Z " fill="#46392F" transform="translate(147,165)"/>
<path d="M0 0 C1.65 0 3.3 0 5 0 C5 1.65 5 3.3 5 5 C3.68 5 2.36 5 1 5 C1 6.32 1 7.64 1 9 C-0.65 9 -2.3 9 -4 9 C-2.68 8.67 -1.36 8.34 0 8 C0 5.36 0 2.72 0 0 Z " fill="#2F2520" transform="translate(161,95)"/>
<path d="M0 0 C2.64 0 5.28 0 8 0 C8 1.32 8 2.64 8 4 C5.36 4 2.72 4 0 4 C0 2.68 0 1.36 0 0 Z " fill="#CDB181" transform="translate(135,161)"/>
<path d="M0 0 C2.64 0 5.28 0 8 0 C8 1.32 8 2.64 8 4 C5.36 4 2.72 4 0 4 C0 2.68 0 1.36 0 0 Z " fill="#322823" transform="translate(170,148)"/>
<path d="M0 0 C2.64 0 5.28 0 8 0 C8 1.32 8 2.64 8 4 C5.36 4 2.72 4 0 4 C0 2.68 0 1.36 0 0 Z " fill="#40352D" transform="translate(33,117)"/>
<path d="M0 0 C1.32 0 2.64 0 4 0 C4 2.64 4 5.28 4 8 C2.68 8 1.36 8 0 8 C0 5.36 0 2.72 0 0 Z " fill="#816D54" transform="translate(161,86)"/>
<path d="M0 0 C2.64 0 5.28 0 8 0 C8 1.32 8 2.64 8 4 C5.36 4 2.72 4 0 4 C0 2.68 0 1.36 0 0 Z " fill="#4896A9" transform="translate(68,46)"/>
<path d="M0 0 C0 1.32 0 2.64 0 4 C-2.64 4 -5.28 4 -8 4 C-8 3.01 -8 2.02 -8 1 C-5.10765685 0.17361624 -3.11257569 0 0 0 Z " fill="#2B221F" transform="translate(147,174)"/>
<path d="M0 0 C1.65 0 3.3 0 5 0 C5 1.65 5 3.3 5 5 C3.35 5 1.7 5 0 5 C0 3.35 0 1.7 0 0 Z " fill="#533C32" transform="translate(121,134)"/>
<path d="M0 0 C1.65 0 3.3 0 5 0 C5 1.65 5 3.3 5 5 C3.35 5 1.7 5 0 5 C0 3.35 0 1.7 0 0 Z " fill="#45392F" transform="translate(156,28)"/>
<path d="M0 0 C2.97 0 5.94 0 9 0 C9 0.33 9 0.66 9 1 C7.35 1 5.7 1 4 1 C4 1.99 4 2.98 4 4 C2.68 4.33 1.36 4.66 0 5 C0 3.35 0 1.7 0 0 Z " fill="#4A3D33" transform="translate(134,174)"/>
<path d="M0 0 C0.99 0 1.98 0 3 0 C3 1.32 3 2.64 3 4 C2.01 4 1.02 4 0 4 C-0.33 5.32 -0.66 6.64 -1 8 C-1 6.68 -1 5.36 -1 4 C-2.32 3.67 -3.64 3.34 -5 3 C-3.35 3 -1.7 3 0 3 C0 2.01 0 1.02 0 0 Z " fill="#645042" transform="translate(55,91)"/>
<path d="M0 0 C1.65 0 3.3 0 5 0 C5 1.32 5 2.64 5 4 C3.35 4 1.7 4 0 4 C0 2.68 0 1.36 0 0 Z " fill="#B2966C" transform="translate(125,152)"/>
<path d="M0 0 C1.65 0 3.3 0 5 0 C5 1.32 5 2.64 5 4 C3.35 4 1.7 4 0 4 C0 2.68 0 1.36 0 0 Z " fill="#6B5946" transform="translate(165,148)"/>
<path d="M0 0 C1.32 0 2.64 0 4 0 C4 1.65 4 3.3 4 5 C2.68 5 1.36 5 0 5 C0 3.35 0 1.7 0 0 Z " fill="#695845" transform="translate(170,143)"/>
<path d="M0 0 C1.32 0 2.64 0 4 0 C4 1.65 4 3.3 4 5 C2.68 5 1.36 5 0 5 C0 3.35 0 1.7 0 0 Z " fill="#AE916B" transform="translate(157,121)"/>
<path d="M0 0 C1.32 0 2.64 0 4 0 C4 1.65 4 3.3 4 5 C2.68 5 1.36 5 0 5 C0 3.35 0 1.7 0 0 Z " fill="#533E34" transform="translate(130,90)"/>
<path d="M0 0 C2.64 0 5.28 0 8 0 C6.68 0.33 5.36 0.66 4 1 C4 1.99 4 2.98 4 4 C2.68 4 1.36 4 0 4 C0 2.68 0 1.36 0 0 Z " fill="#554036" transform="translate(130,37)"/>
<path d="M0 0 C1.65 0 3.3 0 5 0 C5 1.32 5 2.64 5 4 C3.35 4 1.7 4 0 4 C0 2.68 0 1.36 0 0 Z " fill="#533D33" transform="translate(54,37)"/>
<path d="M0 0 C1.65 0 3.3 0 5 0 C5 1.32 5 2.64 5 4 C3.35 4 1.7 4 0 4 C0 2.68 0 1.36 0 0 Z " fill="#847359" transform="translate(143,24)"/>
<path d="M0 0 C1.32 0 2.64 0 4 0 C4 1.32 4 2.64 4 4 C2.68 4.33 1.36 4.66 0 5 C0 3.35 0 1.7 0 0 Z " fill="#DFC394" transform="translate(46,29)"/>
<path d="M0 0 C1.65 0 3.3 0 5 0 C5 0.66 5 1.32 5 2 C3.35 2 1.7 2 0 2 C0 1.34 0 0.68 0 0 Z " fill="#2E2621" transform="translate(159,167)"/>
<path d="M0 0 C0.99 0 1.98 0 3 0 C2.67 0.99 2.34 1.98 2 3 C1.34 3 0.68 3 0 3 C0 2.01 0 1.02 0 0 Z " fill="#2A221D" transform="translate(176,154)"/>
<path d="M0 0 C3 1 3 1 3 1 Z " fill="#5C5043" transform="translate(35,114)"/>
</svg>
